# xmcd CD database file
#
# Track frame offsets:
#	150
#	16075
#	32293
#	49770
#	66961
#	84543
#	104327
#	120003
#	135180
#	155977
#	173258
#	187120
#	208065
#	227273
#	243022
#	260268
#	274769
#	286570
#	296858
#	311937
#
# Disc length: 4336 seconds
#
# Revision: 1
# Processed by: cddbd v1.5.2PL0 Copyright (c) Steve Scherf et al.
# Submitted via: CDex 1.70beta2
#
DISCID=0510ee14
DTITLE=Various Artist - 40 Salsas Colombianas Poderosas Disc 1
DYEAR=2008
DGENRE=Salsa
TTITLE0=La Cita- Latin Sound
TTITLE1=Micaela- Digi Underground
TTITLE2=Una Aventura- Grupo Niche
TTITLE3=Torero- Latin Sound
TTITLE4=Cuerpo De Guitarra-  Latin Sound
TTITLE5=Un Vestido Bonito- Latin Sound
TTITLE6=Mi Vecina- Latin Sound
TTITLE7=Patacion Pisao- Latin Sound
TTITLE8=Que Te Pasa- Latin Sound
TTITLE9=A Nuestro Moda- Fruko
TTITLE10=Una Palomita- Fruko
TTITLE11=Juanita Ae- Fruko
TTITLE12=Si Superas- Latin Sound
TTITLE13=Tronico Seco- Fruko
TTITLE14=Nadie Es Eterno- Fruko
TTITLE15=Barranquillero Arrebatao- Fruko
TTITLE16=Del Monton- Fruko
TTITLE17=Ilusion- Fruko
TTITLE18=Pagaso- Fruko
TTITLE19=Mi Vecina- Fruko
EXTD=YEAR: 2008
EXTT0=
EXTT1=
EXTT2=
EXTT3=
EXTT4=
EXTT5=
EXTT6=
EXTT7=
EXTT8=
EXTT9=
EXTT10=
EXTT11=
EXTT12=
EXTT13=
EXTT14=
EXTT15=
EXTT16=
EXTT17=
EXTT18=
EXTT19=
PLAYORDER=
